PathFileType	4	(X/Y/Z)	56_2_73_p1_0-245_filt_butterworth.trc
DataRate	CameraRate	NumFrames	NumMarkers	Units	OrigDataRate	OrigDataStartFrame	OrigNumFrames
50.0	50.0	5	27	m	50.0	30	245
Frame#	Time	RHip			RKnee			RAnkle			RBigToe			RSmallToe			RHeel			LHip			LKnee			LAnkle			LBigToe			LSmallToe			LHeel			Neck			Head			Nose			RShoulder			RElbow			RWrist			RThumb			RIndex			RPinky			LShoulder			LElbow			LWrist			LThumb			LIndex			LPinky			
		X1	Y1	Z1	X2	Y2	Z2	X3	Y3	Z3	X4	Y4	Z4	X5	Y5	Z5	X6	Y6	Z6	X7	Y7	Z7	X8	Y8	Z8	X9	Y9	Z9	X10	Y10	Z10	X11	Y11	Z11	X12	Y12	Z12	X13	Y13	Z13	X14	Y14	Z14	X15	Y15	Z15	X16	Y16	Z16	X17	Y17	Z17	X18	Y18	Z18	X19	Y19	Z19	X20	Y20	Z20	X21	Y21	Z21	X22	Y22	Z22	X23	Y23	Z23	X24	Y24	Z24	X25	Y25	Z25	X26	Y26	Z26	X27	Y27	Z27	
30	0.6	0.485653203123533	0.7290486899731838	0.33876566254556517	0.4664361060328515	0.8179282506187092	0.6757071765204005	0.5031370778659928	1.0042145043200532	1.047299200332083	0.41743878707225984	0.8655220979309008	1.1424632639239263	0.4917519168965213	0.8600763043972193	1.1488609198935094	0.5167686986506883	1.1401777923660346	1.0934160203796612	0.28735348292962903	0.8279128343208748	0.3279240853066225	0.3084525767653695	0.943377162544784	0.6594348492690284	0.3134438477624216	1.0864116305218967	1.0050370139016132	0.24406062729863948	0.905647651530098	1.1118296290748226	0.21973010553889535	0.9833653570544019	1.1048221728450578	0.3499353241939598	1.1505204749230316	1.051651511482959	0.3302387445143242	0.5020829188250863	-0.18005990183945736	0.28230523854711753	0.3432471765528702	-0.401282838453578	0.2656665964876147	0.35666679283708036	-0.24179611545538393	0.4800363141986558	0.48256420040146225	-0.10638098904151934	0.5439945738588741	0.5186026314590944	0.1348069342985255	0.39954171597616095	0.516401126062445	0.26681131581967343	0.2841583324840694	0.5194941162605118	0.3444113679633895	0.2943842358304087	0.5747647542259934	0.36030078027554446	0.3012011192785168	0.604930718073984	0.36772552956780075	0.17537145381582836	0.5855079652868564	-0.13307590043515252	0.13890103832955464	0.7338541401931435	0.11169717413845309	0.29336061238905525	0.5415606245500462	0.24723170996921037	0.40677852710075874	0.48812832784617366	0.24120889138006057	0.4062770131366184	0.48446917974186055	0.28377616377212683	0.346299983050725	0.4732181160967728	0.3231484898871767
31	0.62	0.4854491870006605	0.7336016473488038	0.3372153143277825	0.45897772673057974	0.8090027024937304	0.6744268383759042	0.5018913222040151	1.005145389381865	1.0472510538282105	0.4175711578035883	0.8665541216171968	1.144360076496879	0.49164716360885313	0.859943133067433	1.1493327084858262	0.5184324588507504	1.150751767257391	1.09620177857543	0.2871447999087725	0.8264866145297325	0.32517497669504647	0.3074304256246862	0.9421178351002566	0.659187600998141	0.3130759458196735	1.0861253637624169	1.0054478063345333	0.2439148740204613	0.906358272342677	1.1127606490213549	0.21946016981189476	0.9844152171815521	1.1064738714153006	0.34981188695449056	1.1514071062143745	1.054498930603223	0.324162073216679	0.4949999398840021	-0.17385189363009876	0.2780816439418046	0.34045863286084616	-0.3951007255283529	0.26404812271101985	0.3514577854758597	-0.2357788200151696	0.47858801177318655	0.4845873739404035	-0.09990376500496813	0.5417936585811324	0.5306903946985004	0.1443856257071104	0.40389787846545233	0.5252586296587564	0.27973993700430566	0.29414092341878173	0.5423750307506028	0.35006377280371903	0.29927329863567254	0.5830726027613782	0.3721920357991131	0.3020018732951997	0.6041486388179047	0.38200783934492355	0.17384972668050122	0.582350364300001	-0.12576038835352768	0.14341669427204365	0.7402791710888311	0.11766031780891181	0.29076678922808813	0.5427489277987478	0.2537349496600853	0.40605527899682425	0.49097581251582667	0.2585331356764163	0.4043545612784759	0.4798782958581864	0.29412308393608644	0.33509124061387313	0.4717100125631469	0.33698261525194806
32	0.64	0.4851948748580278	0.7399111452619547	0.33628713507354935	0.4525641404601477	0.798869220682174	0.6712950598901413	0.5016790719259527	1.006218825906833	1.0471236359244591	0.4180503382341064	0.8685885224505722	1.1481385360551422	0.49161416526225477	0.8599314788334402	1.1494736760070574	0.5194262026544707	1.1583249907411144	1.0975327581561873	0.28755845347133613	0.8249855906812679	0.3220160598853001	0.30349036663570006	0.9370720743100279	0.6589200879821348	0.3131872910757399	1.0860807118916957	1.0059898944041563	0.24374036402579818	0.9074284025278906	1.114115337946214	0.21919778487936378	0.985348608232045	1.1079435717990715	0.35055745389529913	1.152501349400342	1.0554163358126927	0.3172776527336968	0.48523237112653256	-0.16758716805742105	0.27559163080872645	0.3393845761930828	-0.38790667854940153	0.26357772936725643	0.3446343026102038	-0.2295655991365328	0.4777534817087537	0.4853200714653922	-0.09334081332331903	0.5372355617513376	0.5438326335010788	0.1572134116589859	0.4044860212452251	0.5359092218265838	0.2929039409007871	0.30263058371821727	0.5727326112188259	0.3589098948607651	0.3038432833791518	0.5924748122137055	0.3841715503051536	0.3034701230701809	0.6048230452001717	0.39728743082171397	0.1727246582452459	0.583031280839174	-0.11843563710061542	0.1475170032305974	0.7451725733274279	0.1224069447006428	0.28846964788439244	0.5458304718824295	0.2625559520775369	0.4022243848738625	0.49391772365678943	0.2770624672509468	0.39932093492080734	0.48325977827913413	0.3094268587572999	0.32618250113647407	0.4710516446505636	0.35230826590425374
33	0.66	0.48470291807648824	0.7427570899894391	0.33474935594145083	0.44837216484787107	0.7894511339383512	0.6683681787050367	0.5023275400262509	1.0064534122268733	1.0471097331721255	0.4180759632695427	0.8695959665598411	1.1516245531551925	0.4917909353039515	0.860132882873698	1.1490325153812682	0.5193309778937518	1.159383019668446	1.0981005306181557	0.2883511744755664	0.8235618533440666	0.31907429883444116	0.2979746188876985	0.9302707802672411	0.6590996668453227	0.3132729802313992	1.086276749439941	1.0061425071790036	0.24362876723644494	0.9080968542059312	1.115479658821377	0.218894888307946	0.9861690979925	1.1093571853260322	0.35150764877040297	1.152932539858291	1.0551039709375658	0.3115430272500965	0.4748554261580766	-0.16155817977104053	0.27549863602496216	0.3404301407629326	-0.3809203212690336	0.2616356865586664	0.33827460865468323	-0.2241883057385817	0.47769613483883044	0.48294971020245	-0.0877767754500639	0.5319652917887479	0.5515842721873857	0.16942039123654645	0.4013517450099937	0.5455894209125041	0.3057902988627788	0.3086020546036797	0.5892322902968754	0.36883419735727224	0.30486445967029746	0.6022473192643902	0.397529336319695	0.3045706332218693	0.6070267611371849	0.40963766374508237	0.17165538566819724	0.5851495039404393	-0.11267955428250416	0.14914485319763793	0.7458929043601079	0.12550546332917314	0.2874448888718466	0.5500533715232733	0.2727793704722354	0.39120784430140354	0.49234843526810534	0.29659784780414483	0.3843512874769074	0.4867645014530155	0.332542654577909	0.320810646081772	0.472470434537246	0.3677429859303875
34	0.68	0.4845416526217621	0.7416949575366093	0.3329033574772307	0.4461934821185968	0.7835699260546711	0.6675032193024538	0.5029256956778566	1.0046891055162277	1.0482539471288774	0.4162307354621959	0.867295576218079	1.1519757275714115	0.49205935981152554	0.8604991258296697	1.148115196049025	0.5186256060529074	1.154344474344536	1.0993898289079813	0.289771600038775	0.8231822288511024	0.3193702768859924	0.2942879449123338	0.9269404708491942	0.6603803678367768	0.3133146117917308	1.0867421746318575	1.006789450872102	0.24320999598488655	0.9074321089160714	1.1171353193586908	0.21859613257188187	0.9870020562629227	1.1108648723611054	0.3526688855109936	1.1521838872508563	1.0547689253634067	0.3075090031151044	0.46773448283548497	-0.1553174596566482	0.27517899488343545	0.3406217954558245	-0.3748625223237019	0.2571890706662841	0.3318157114987922	-0.2182635098442621	0.4778612903813987	0.4787354105170849	-0.08459935335590449	0.5266451059068006	0.5516291245661494	0.17917464478695705	0.3951830024019786	0.5547084240956581	0.3189825754995791	0.3110979440432689	0.5957247382242395	0.3803853939338847	0.3020434499266368	0.6148483361487008	0.41207108913644025	0.3037099072163261	0.6097158125003934	0.418575068320444	0.17020406838021446	0.5859819362390135	-0.10896610955345812	0.14889401708934058	0.7413744406136342	0.12790634192640113	0.28804700559027374	0.5538344866902349	0.2837849351391638	0.37274041701637683	0.48278935135708473	0.3148342023775504	0.3613354222745829	0.4845643125952547	0.36064474466344776	0.3190081515234663	0.47827841607985744	0.3807849722452337
